<svg width="30" height="30" viewBox="0 0 30 30" fill="none" xmlns="http://www.w3.org/2000/svg">
<path fill-rule="evenodd" clip-rule="evenodd" d="M0 5C0 3.67392 0.526784 2.40215 1.46447 1.46447C2.40215 0.526784 3.67392 0 5 0H25C26.3261 0 27.5979 0.526784 28.5355 1.46447C29.4732 2.40215 30 3.67392 30 5V25C30 26.3261 29.4732 27.5979 28.5355 28.5355C27.5979 29.4732 26.3261 30 25 30H5C3.67392 30 2.40215 29.4732 1.46447 28.5355C0.526784 27.5979 0 26.3261 0 25V5ZM5 3.33333H25C25.442 3.33333 25.866 3.50893 26.1785 3.82149C26.4911 4.13405 26.6667 4.55797 26.6667 5V25C26.6667 25.442 26.4911 25.866 26.1785 26.1785C25.866 26.4911 25.442 26.6667 25 26.6667H5C4.55797 26.6667 4.13405 26.4911 3.82149 26.1785C3.50893 25.866 3.33333 25.442 3.33333 25V5C3.33333 4.55797 3.50893 4.13405 3.82149 3.82149C4.13405 3.50893 4.55797 3.33333 5 3.33333Z" fill="black" fill-opacity="0.3"/>
</svg>
