<svg width="35" height="27" viewBox="0 0 35 27" fill="none" xmlns="http://www.w3.org/2000/svg">
<path d="M1.74966 14.5284H3.4997V23.7736C3.4997 25.2304 5.06949 26.4151 6.99978 26.4151H28.0002C29.9305 26.4151 31.5003 25.2304 31.5003 23.7736V14.5284H33.2503C33.5964 14.5284 33.9347 14.4509 34.2224 14.3057C34.5101 14.1606 34.7344 13.9544 34.8668 13.7131C34.9992 13.4718 35.0339 13.2063 34.9664 12.9501C34.8989 12.6939 34.7323 12.4586 34.4876 12.2739L18.7373 0.387243C18.5749 0.264486 18.382 0.167097 18.1697 0.100649C17.9574 0.034202 17.7298 0 17.5 0C17.2702 0 17.0426 0.034202 16.8303 0.100649C16.618 0.167097 16.4251 0.264486 16.2627 0.387243L0.512388 12.2739C0.267716 12.4586 0.101101 12.6939 0.0336068 12.9501C-0.0338879 13.2063 0.000768185 13.4718 0.133194 13.7131C0.265619 13.9544 0.489868 14.1606 0.777591 14.3057C1.06531 14.4509 1.40359 14.5284 1.74966 14.5284ZM13.9999 23.7736V17.1699H21.0001V23.7736H13.9999ZM17.5 3.18854L28.0002 11.113V17.1699L28.002 23.7736H24.5002V17.1699C24.5002 15.7131 22.9304 14.5284 21.0001 14.5284H13.9999C12.0696 14.5284 10.4999 15.7131 10.4999 17.1699V23.7736H6.99978V11.113L17.5 3.18854Z" fill="#A681C3"/>
</svg>
