<svg width="35" height="34" viewBox="0 0 35 34" fill="none" xmlns="http://www.w3.org/2000/svg">
<path d="M9.90002 1.50935C8.22207 1.50722 6.57794 1.97671 5.15861 2.86329C3.73927 3.74987 2.603 5.01715 1.88176 6.51793C1.16052 8.01871 0.883914 9.69139 1.08408 11.3417C1.28425 12.992 1.95297 14.5521 3.01257 15.841L17.2339 32.3777L31.3169 16.006L31.3869 15.9276L31.4568 15.841C32.2268 14.9222 32.7998 13.8577 33.1409 12.7125C33.482 11.5672 33.5841 10.3651 33.4409 9.17946C33.2976 7.99384 32.9122 6.84952 32.3079 5.81629C31.7037 4.78306 30.8933 3.88256 29.9263 3.16968C28.9593 2.45681 27.8558 1.94651 26.6831 1.66988C25.5105 1.39326 24.2933 1.35611 23.1057 1.5607C21.9181 1.76529 20.785 2.20734 19.7755 2.85989C18.7659 3.51244 17.9012 4.36182 17.2339 5.35625C16.4226 4.17141 15.3308 3.20139 14.0539 2.53095C12.7769 1.8605 11.3536 1.51004 9.90835 1.51017L9.90002 1.50935Z" stroke="#D9D9D9" stroke-width="2" stroke-linecap="round" stroke-linejoin="round"/>
</svg>
