<svg width="29" height="20" viewBox="0 0 29 20" fill="none" xmlns="http://www.w3.org/2000/svg">
<path d="M26.0208 0H2.02075C1.49032 0 0.981611 0.210714 0.606538 0.585786C0.231466 0.960859 0.020752 1.46957 0.020752 2V18C0.020752 18.5304 0.231466 19.0391 0.606538 19.4142C0.981611 19.7893 1.49032 20 2.02075 20H26.0208C26.5512 20 27.0599 19.7893 27.435 19.4142C27.81 19.0391 28.0208 18.5304 28.0208 18V2C28.0208 1.46957 27.81 0.960859 27.435 0.585786C27.0599 0.210714 26.5512 0 26.0208 0ZM23.8208 2L14.0208 8.78L4.22075 2H23.8208ZM2.02075 18V2.91L13.4508 10.82C13.6181 10.9361 13.817 10.9984 14.0208 10.9984C14.2245 10.9984 14.4234 10.9361 14.5908 10.82L26.0208 2.91V18H2.02075Z" fill="black" fill-opacity="0.3"/>
</svg>
