<svg width="27" height="28" viewBox="0 0 27 28" fill="none" xmlns="http://www.w3.org/2000/svg">
<path d="M1 20.6763C1 19.7724 1.772 19.0085 2.8 18.9088C10.515 18.1615 15.52 18.2289 23.218 18.9254C23.6024 18.9607 23.9667 19.0933 24.2665 19.3068C24.5663 19.5203 24.7885 19.8056 24.906 20.1278C25.0235 20.45 25.0312 20.7951 24.9282 21.1211C24.8252 21.4471 24.616 21.7398 24.326 21.9634C15.241 28.8925 10.049 28.7971 1.64 21.9704C1.23 21.6379 1 21.1654 1 20.6772V20.6763Z" fill="black" fill-opacity="0.3"/>
<path fill-rule="evenodd" clip-rule="evenodd" d="M23.115 19.7951C15.478 19.1039 10.545 19.0391 2.90901 19.7785C2.65765 19.8041 2.42593 19.91 2.25821 20.0758C2.09049 20.2416 1.99855 20.4557 2.00001 20.6771C2.00001 20.9274 2.11901 21.1645 2.32001 21.329C6.48801 24.7117 9.64601 26.2403 12.733 26.25C15.831 26.2596 19.159 24.7432 23.669 21.3045C23.8123 21.1929 23.9154 21.0473 23.9659 20.8854C24.0164 20.7235 24.012 20.5522 23.9533 20.3924C23.8946 20.2326 23.7842 20.0912 23.6354 19.9853C23.4865 19.8794 23.3058 19.8137 23.115 19.796V19.7951ZM2.69001 18.039C10.486 17.2839 15.564 17.3521 23.322 18.0547C23.9003 18.1076 24.4485 18.3068 24.8994 18.628C25.3503 18.9492 25.6844 19.3785 25.8607 19.8633C26.0371 20.348 26.0481 20.8673 25.8924 21.3575C25.7367 21.8477 25.421 22.2875 24.984 22.6231C20.409 26.1126 16.599 28.0131 12.727 28C8.84401 27.9877 5.20201 26.0548 0.961006 22.6117C0.657358 22.3643 0.415298 22.0646 0.249949 21.7316C0.084599 21.3986 -0.00048753 21.0393 5.79928e-06 20.6762C-0.00145262 20.0239 0.272209 19.3939 0.76857 18.9072C1.26493 18.4204 1.94909 18.1109 2.69001 18.0381V18.039Z" fill="black" fill-opacity="0.3"/>
<path d="M21 6.99998C21 8.85649 20.1571 10.637 18.6569 11.9497C17.1566 13.2625 15.1217 14 13 14C10.8783 14 8.84344 13.2625 7.34315 11.9497C5.84285 10.637 5 8.85649 5 6.99998C5 5.14347 5.84285 3.363 7.34315 2.05025C8.84344 0.737496 10.8783 0 13 0C15.1217 0 17.1566 0.737496 18.6569 2.05025C20.1571 3.363 21 5.14347 21 6.99998Z" fill="black" fill-opacity="0.3"/>
<path fill-rule="evenodd" clip-rule="evenodd" d="M13 12.25C14.5913 12.25 16.1174 11.6968 17.2426 10.7123C18.3679 9.72772 19 8.39237 19 6.99998C19 5.6076 18.3679 4.27225 17.2426 3.28768C16.1174 2.30312 14.5913 1.75 13 1.75C11.4087 1.75 9.88258 2.30312 8.75736 3.28768C7.63214 4.27225 7 5.6076 7 6.99998C7 8.39237 7.63214 9.72772 8.75736 10.7123C9.88258 11.6968 11.4087 12.25 13 12.25ZM13 14C15.1217 14 17.1566 13.2625 18.6569 11.9497C20.1571 10.637 21 8.85649 21 6.99998C21 5.14347 20.1571 3.363 18.6569 2.05025C17.1566 0.737496 15.1217 0 13 0C10.8783 0 8.84344 0.737496 7.34315 2.05025C5.84285 3.363 5 5.14347 5 6.99998C5 8.85649 5.84285 10.637 7.34315 11.9497C8.84344 13.2625 10.8783 14 13 14Z" fill="black" fill-opacity="0.3"/>
</svg>
